{
    "asset" : {
        "generator" : "Khronos glTF Blender I/O v1.0.5",
        "version" : "2.0"
    },
    "scene" : 0,
    "scenes" : [
        {
            "name" : "Scene",
            "nodes" : [
                0,
                1,
                2,
                3,
                4,
                5,
                6,
                7,
                8
            ]
        }
    ],
    "nodes" : [
        {
            "name" : "Point",
            "translation" : [
                4.0557708740234375,
                1.87469482421875,
                8.676454544067383
            ]
        },
        {
            "mesh" : 0,
            "name" : "Circle.004",
            "scale" : [
                3.881042957305908,
                3.881042957305908,
                3.881042957305908
            ],
            "translation" : [
                0,
                0.5653839111328125,
                0
            ]
        },
        {
            "mesh" : 1,
            "name" : "Circle.003",
            "scale" : [
                2.9514501094818115,
                2.9514501094818115,
                2.9514501094818115
            ],
            "translation" : [
                0,
                1.7894819974899292,
                0
            ]
        },
        {
            "mesh" : 2,
            "name" : "Circle.002",
            "translation" : [
                0,
                3.0467350482940674,
                0
            ]
        },
        {
            "mesh" : 3,
            "name" : "Circle.001",
            "scale" : [
                1.6891441345214844,
                1.6891441345214844,
                1.6891441345214844
            ],
            "translation" : [
                0,
                4.302876949310303,
                0
            ]
        },
        {
            "mesh" : 4,
            "name" : "Circle",
            "translation" : [
                0,
                5.318974494934082,
                0
            ]
        },
        {
            "mesh" : 5,
            "name" : "Cylinder"
        },
        {
            "name" : "Lamp",
            "rotation" : [
                0.16907575726509094,
                0.7558803558349609,
                -0.27217137813568115,
                0.570947527885437
            ],
            "translation" : [
                5.446471691131592,
                5.689820289611816,
                -1.0054539442062378
            ]
        },
        {
            "name" : "Camera",
            "rotation" : [
                0.6491952538490295,
                0.285770446062088,
                -0.29526790976524353,
                0.640076220035553
            ],
            "translation" : [
                11.234411239624023,
                3.7957077026367188,
                8.375676155090332
            ]
        }
    ],
    "materials" : [
        {
            "doubleSided" : true,
            "name" : "Material.002",
            "pbrMetallicRoughness" : {
                "baseColorFactor" : [
                    0.30149638652801514,
                    0.8000000715255737,
                    0.007057518698275089,
                    1
                ],
                "metallicFactor" : 0,
                "roughnessFactor" : 0.5
            }
        },
        {
            "doubleSided" : true,
            "name" : "Material.001",
            "pbrMetallicRoughness" : {
                "baseColorFactor" : [
                    0.8000000715255737,
                    0.21836332976818085,
                    0,
                    1
                ],
                "metallicFactor" : 0,
                "roughnessFactor" : 0.5
            }
        }
    ],
    "meshes" : [
        {
            "name" : "Circle.006",
            "primitives" : [
                {
                    "attributes" : {
                        "POSITION" : 0,
                        "NORMAL" : 1
                    },
                    "indices" : 2,
                    "material" : 0
                }
            ]
        },
        {
            "name" : "Circle.005",
            "primitives" : [
                {
                    "attributes" : {
                        "POSITION" : 3,
                        "NORMAL" : 4
                    },
                    "indices" : 5,
                    "material" : 0
                }
            ]
        },
        {
            "name" : "Circle.004",
            "primitives" : [
                {
                    "attributes" : {
                        "POSITION" : 6,
                        "NORMAL" : 7
                    },
                    "indices" : 8,
                    "material" : 0
                }
            ]
        },
        {
            "name" : "Circle.003",
            "primitives" : [
                {
                    "attributes" : {
                        "POSITION" : 9,
                        "NORMAL" : 10
                    },
                    "indices" : 11,
                    "material" : 0
                }
            ]
        },
        {
            "name" : "Circle.002",
            "primitives" : [
                {
                    "attributes" : {
                        "POSITION" : 12,
                        "NORMAL" : 13
                    },
                    "indices" : 14,
                    "material" : 0
                }
            ]
        },
        {
            "name" : "Cylinder",
            "primitives" : [
                {
                    "attributes" : {
                        "POSITION" : 15,
                        "NORMAL" : 16
                    },
                    "indices" : 17,
                    "material" : 1
                }
            ]
        }
    ],
    "accessors" : [
        {
            "bufferView" : 0,
            "componentType" : 5126,
            "count" : 128,
            "max" : [
                1,
                0.19781434535980225,
                1
            ],
            "min" : [
                -1,
                0,
                -1
            ],
            "type" : "VEC3"
        },
        {
            "bufferView" : 1,
            "componentType" : 5126,
            "count" : 128,
            "type" : "VEC3"
        },
        {
            "bufferView" : 2,
            "componentType" : 5123,
            "count" : 192,
            "type" : "SCALAR"
        },
        {
            "bufferView" : 3,
            "componentType" : 5126,
            "count" : 128,
            "max" : [
                1,
                0.2610877752304077,
                1
            ],
            "min" : [
                -1,
                0,
                -1
            ],
            "type" : "VEC3"
        },
        {
            "bufferView" : 4,
            "componentType" : 5126,
            "count" : 128,
            "type" : "VEC3"
        },
        {
            "bufferView" : 5,
            "componentType" : 5123,
            "count" : 192,
            "type" : "SCALAR"
        },
        {
            "bufferView" : 6,
            "componentType" : 5126,
            "count" : 128,
            "max" : [
                2.169764995574951,
                0.7948498129844666,
                2.169764995574951
            ],
            "min" : [
                -2.169764518737793,
                0,
                -2.169764280319214
            ],
            "type" : "VEC3"
        },
        {
            "bufferView" : 7,
            "componentType" : 5126,
            "count" : 128,
            "type" : "VEC3"
        },
        {
            "bufferView" : 8,
            "componentType" : 5123,
            "count" : 192,
            "type" : "SCALAR"
        },
        {
            "bufferView" : 9,
            "componentType" : 5126,
            "count" : 128,
            "max" : [
                1,
                0.4346403181552887,
                1
            ],
            "min" : [
                -1,
                0,
                -1
            ],
            "type" : "VEC3"
        },
        {
            "bufferView" : 10,
            "componentType" : 5126,
            "count" : 128,
            "type" : "VEC3"
        },
        {
            "bufferView" : 11,
            "componentType" : 5123,
            "count" : 192,
            "type" : "SCALAR"
        },
        {
            "bufferView" : 12,
            "componentType" : 5126,
            "count" : 384,
            "max" : [
                1,
                0.5677099823951721,
                1
            ],
            "min" : [
                -1,
                0,
                -1
            ],
            "type" : "VEC3"
        },
        {
            "bufferView" : 13,
            "componentType" : 5126,
            "count" : 384,
            "type" : "VEC3"
        },
        {
            "bufferView" : 14,
            "componentType" : 5123,
            "count" : 960,
            "type" : "SCALAR"
        },
        {
            "bufferView" : 15,
            "componentType" : 5126,
            "count" : 448,
            "max" : [
                0.246627539396286,
                5.777714729309082,
                0.2466273307800293
            ],
            "min" : [
                -0.24662739038467407,
                -0.2902958393096924,
                -0.24662844836711884
            ],
            "type" : "VEC3"
        },
        {
            "bufferView" : 16,
            "componentType" : 5126,
            "count" : 448,
            "type" : "VEC3"
        },
        {
            "bufferView" : 17,
            "componentType" : 5123,
            "count" : 756,
            "type" : "SCALAR"
        }
    ],
    "bufferViews" : [
        {
            "buffer" : 0,
            "byteLength" : 1536,
            "byteOffset" : 0
        },
        {
            "buffer" : 0,
            "byteLength" : 1536,
            "byteOffset" : 1536
        },
        {
            "buffer" : 0,
            "byteLength" : 384,
            "byteOffset" : 3072
        },
        {
            "buffer" : 0,
            "byteLength" : 1536,
            "byteOffset" : 3456
        },
        {
            "buffer" : 0,
            "byteLength" : 1536,
            "byteOffset" : 4992
        },
        {
            "buffer" : 0,
            "byteLength" : 384,
            "byteOffset" : 6528
        },
        {
            "buffer" : 0,
            "byteLength" : 1536,
            "byteOffset" : 6912
        },
        {
            "buffer" : 0,
            "byteLength" : 1536,
            "byteOffset" : 8448
        },
        {
            "buffer" : 0,
            "byteLength" : 384,
            "byteOffset" : 9984
        },
        {
            "buffer" : 0,
            "byteLength" : 1536,
            "byteOffset" : 10368
        },
        {
            "buffer" : 0,
            "byteLength" : 1536,
            "byteOffset" : 11904
        },
        {
            "buffer" : 0,
            "byteLength" : 384,
            "byteOffset" : 13440
        },
        {
            "buffer" : 0,
            "byteLength" : 4608,
            "byteOffset" : 13824
        },
        {
            "buffer" : 0,
            "byteLength" : 4608,
            "byteOffset" : 18432
        },
        {
            "buffer" : 0,
            "byteLength" : 1920,
            "byteOffset" : 23040
        },
        {
            "buffer" : 0,
            "byteLength" : 5376,
            "byteOffset" : 24960
        },
        {
            "buffer" : 0,
            "byteLength" : 5376,
            "byteOffset" : 30336
        },
        {
            "buffer" : 0,
            "byteLength" : 1512,
            "byteOffset" : 35712
        }
    ],
    "buffers" : [
        {
            "byteLength" : 37224,
            "uri" : "choinka1.bin"
        }
    ]
}
